PathFileType	4	(X/Y/Z)	Patient4_TMGait_0pt8_01_right_24.trc.trc
DataRate	CameraRate	NumFrames	NumMarkers	Units	OrigDataRate	OrigDataStartFrame	OrigNumFrames
86.956521739130	86.956521739130	4	33	mm	86.956521739130	18	       141
Frame#	Time	Sacral			L.Shoulder			Chest			R.Shoulder			Neck			R.ASIS			L.ASIS			R.Thigh.Superior			R.Thigh.Lateral			R.Thigh.Inferior			R.Patella			L.Thigh.Superior			L.Thigh.Lateral			L.Thigh.Inferior			L.Patella			L.Shank.Superior			L.Shank.Lateral			L.Shank.Inferior			R.Shank.Superior			R.Shank.Lateral			R.Shank.Inferior			R.Heel			R.Midfoot.Superior			R.Midfoot.Lateral			R.Toe			L.Heel			L.Midfoot.Lateral			L.Midfoot.Superior			L.Toe			L.Elbow			L.Wrist			R.Elbow			R.Wrist			
		X1	Y1	Z1	X2	Y2	Z2	X3	Y3	Z3	X4	Y4	Z4	X5	Y5	Z5	X6	Y6	Z6	X7	Y7	Z7	X8	Y8	Z8	X9	Y9	Z9	X10	Y10	Z10	X11	Y11	Z11	X12	Y12	Z12	X13	Y13	Z13	X14	Y14	Z14	X15	Y15	Z15	X16	Y16	Z16	X17	Y17	Z17	X18	Y18	Z18	X19	Y19	Z19	X20	Y20	Z20	X21	Y21	Z21	X22	Y22	Z22	X23	Y23	Z23	X24	Y24	Z24	X25	Y25	Z25	X26	Y26	Z26	X27	Y27	Z27	X28	Y28	Z28	X29	Y29	Z29	X30	Y30	Z30	X31	Y31	Z31	X32	Y32	Z32	X33	Y33	Z33	

18	26.985500000000	876.082094285607	1001.378206679743	443.313550345667	1081.538604236178	1430.083189367191	284.529445428657	1166.084291435805	1352.715504049002	452.535198280506	1068.609575299025	1422.900622862442	620.554196611100	1049.029381015524	1486.328845342384	439.949251163839	1097.130258776895	934.437462023608	572.400748423156	1094.414623316553	954.413046628164	296.837428349619	1170.710191039247	764.454197695512	546.481527337339	1131.092027098545	643.472433577314	622.906677342836	1219.505164056763	605.466975210923	542.444901156727	1255.302204041299	527.233150584430	560.745462157487	1086.806047966778	724.873805159981	324.171030422358	962.753069503749	635.473603201901	266.214255767934	1020.949602832869	539.684535042563	328.921288223747	1004.612073755588	475.873797987293	338.860040532767	971.649942690568	411.212683152278	334.215670332232	868.491879255695	304.697461314775	291.849060364607	913.497598248662	191.146391717230	364.577677255438	1246.046354757734	440.922694155353	572.394698654134	1203.021751103370	323.522650434452	636.871677982947	1280.180948537773	243.585541025523	586.083852752983	1203.965014607115	50.368145564835	556.526217810356	1361.267356333342	134.180840059453	601.170022446591	1286.891226218461	52.404861574387	631.786515925794	1487.031413023973	103.427859533517	628.985585988822	778.948801948635	39.800678450230	420.984212692342	846.995739582705	35.925207014449	335.693401434564	932.477843805227	96.014297929845	356.203922505801	1057.954731975945	43.274850158741	319.506963679565	1200.306753662947	1132.762934880923	119.491077673865	1454.355877017299	1083.258452032502	140.333072078103	893.337514259582	1122.243867746063	705.578806750112	821.393092676278	876.032341604565	733.513803371595	
19	26.997000000000	877.301546957178	999.023174867677	444.505244506461	1082.157722398363	1427.972612410023	285.996298102571	1166.456876705837	1350.941206049585	454.240242654622	1068.483023589004	1421.300778217982	621.936580916436	1049.192833321684	1484.254383387211	441.316290832345	1098.102319168440	932.057552609852	574.093312082671	1095.908132135432	952.422878525725	298.405646178493	1169.833128343041	760.434573689563	548.024852444608	1128.514602837573	639.456733924178	623.468725121638	1216.631712307237	601.340463215276	542.678203212112	1251.933422426754	524.364124641093	560.212587045274	1086.072608484641	722.581588607930	325.388615054637	961.072911056369	634.328642770316	267.035724482333	1017.934050952442	537.951733184385	330.051212794683	1000.881791514455	473.980985667559	339.819117666397	966.971639495602	409.703019832980	335.010538489422	862.472645189581	304.584380696568	292.251844816883	905.609503483588	190.368853174906	364.911177919233	1244.696935978098	438.240116926487	571.834820733515	1203.686790310879	319.323503571693	634.800266329326	1283.514569696009	241.603909291154	584.178129004200	1212.425634617404	46.803615232115	552.742633477773	1367.496915045804	133.573272659405	598.476734494577	1294.728160409135	50.415656977749	628.493615108309	1493.940434801201	105.646941148501	627.202298032304	769.659932711404	39.784857322706	420.926433762151	837.751072350834	35.878124478575	335.680886795796	923.245476577670	95.929983033574	356.317675490677	1048.735886769523	43.096320813388	319.497186231666	1203.213616515918	1132.516188870007	120.419634989777	1458.411158943440	1093.303965468072	143.307051333094	888.781556016356	1124.335498737489	706.952541124361	812.866286023289	879.314854033234	734.250642440419	
20	27.008500000000	878.668702909492	996.582980698192	445.928822199339	1082.684313256412	1425.818761956730	287.564892134130	1166.819416483593	1349.221492876026	456.045254597007	1068.306901296018	1419.645424021292	623.444253881523	1049.320052648704	1482.157547160367	442.809808686837	1099.299586310058	929.686145761490	575.955510239657	1097.583827039096	950.393902974872	300.113018770160	1169.707706722609	756.872621163360	549.629666383627	1126.719406440365	635.663230519360	623.782843985644	1214.750068052301	597.714568763212	542.921465890513	1249.370555446220	521.441013238575	559.658221653247	1085.849075819367	720.276844380673	326.764942498189	960.014624150684	633.053221881747	268.045825227708	1015.650116865150	536.110544555421	331.317613623245	997.900797127337	471.887919298233	340.950542566387	962.936068857252	407.989829326645	335.944177501775	856.928537475981	304.474050640390	292.756906763562	897.931891252236	189.515854214398	365.289431302693	1243.392900348381	435.219438067286	571.074067175347	1203.210735849174	315.301815684515	632.436988283504	1284.719215798824	239.092933567153	581.988457415924	1216.580443003257	44.101942117702	548.873669810090	1370.293881455800	131.849472618521	595.304606539572	1298.278732014431	48.470929002372	625.053372237146	1496.998743296357	105.301932083813	624.934448629536	760.364223743044	39.836090060211	420.814650601655	828.538202181306	35.819782701530	335.649418770716	914.072780100251	95.839848361777	356.412412400575	1039.580121608455	42.859446930325	319.476075926636	1205.626300442936	1131.857781431671	121.580642944673	1461.454557635110	1102.219110845937	146.392366130185	885.183905317314	1125.741912327291	708.506849449302	805.955652800548	881.721195770150	735.221925775360	
21	27.020000000000	880.159208002823	994.127676104394	447.567945412344	1083.133667702080	1423.673849621752	289.241654206132	1167.188489161186	1347.592921394450	457.951212581936	1068.104873684805	1417.960355126145	625.087750731924	1049.433431009431	1480.088592319659	444.436409300920	1100.716445667420	927.393246801040	577.979169831887	1099.418479465148	948.373689067595	301.959712122193	1170.383009232097	753.838911277932	551.292673504436	1125.717992217118	632.181041415604	623.875764841822	1213.901155535336	594.663681662483	543.228401592086	1247.668410505203	518.544891285835	559.098917971832	1086.124030415632	717.998464899505	328.271669820679	959.550728224449	631.678749419092	269.249680722662	1014.103524351831	534.182258745307	332.696435713508	995.688205839372	469.605164631328	342.216283250334	959.536352284818	406.101533167351	336.995242254361	851.846109130361	304.412598405128	293.358812808935	890.476481038350	188.631390417638	365.685861298601	1242.263305413604	431.962411269257	570.157682477969	1201.877665706634	311.503508140747	629.969531586425	1284.107673541958	236.078289306378	579.633476079156	1216.753772424187	42.146304718496	545.186890693034	1370.077714032125	129.008839984062	591.777717353111	1297.973838219746	46.507780105931	621.672737627594	1496.707915049295	102.405729730102	622.184213989118	751.060221792695	40.023373355772	420.628973495144	819.357356784159	35.767444524363	335.586441607210	904.982017429827	95.746164078315	356.460552030468	1030.491070380945	42.563920292784	319.440519029055	1207.518268568689	1130.792277763515	122.979180581943	1463.562240610796	1109.929062890965	149.567786450594	882.593025490573	1126.385436254608	710.222913160687	800.645871832317	883.196874540523	736.463373122491	
